# xmcd CD database file
#
# Track frame offsets:
#	150
#	21376
#	37125
#	61455
#	77772
#	94780
#	111773
#	131530
#	148493
#	168669
#	172135
#	187339
#	208456
#	223774
#	240242
#	256629
#	273790
#	292227
#	310783
#
# Disc length: 4418 seconds
#
# Revision: 0
# Processed by: cddbd v1.5.1PL2 Copyright (c) Steve Scherf et al.
# Submitted via: CDex 1.51
#
DISCID=31114013
DTITLE=Anastacia - Various
DYEAR=1900
DGENRE=Blues
TTITLE0=Cowboys And Kisses
TTITLE1=One Day In Our Life
TTITLE2=Secrets
TTITLE3=Yo Triping
TTITLE4=At The Beginning
TTITLE5=Love Is Alive
TTITLE6=Dont Stop
TTITLE7=Fly To The Sky
TTITLE8=I Ask Of You
TTITLE9=Like Ice In The Sunshine
TTITLE10=Not That Kind
TTITLE11=One More Chance
TTITLE12=Paid My Dues
TTITLE13=Blyk Roses
TTITLE14=Made For Lovin You
TTITLE15=I m Out Of Love
TTITLE16=How Come The World Dont Stop
TTITLE17=Set Me Free
TTITLE18=Overdue Goodbye
EXTD=
EXTT0=
EXTT1=
EXTT2=
EXTT3=
EXTT4=
EXTT5=
EXTT6=
EXTT7=
EXTT8=
EXTT9=
EXTT10=
EXTT11=
EXTT12=
EXTT13=
EXTT14=
EXTT15=
EXTT16=
EXTT17=
EXTT18=
PLAYORDER=
